<?xml version="1.0" encoding="UTF-8"?>
<svg width="19px" height="16px" viewBox="0 0 19 16" version="1.1" xmlns="http://www.w3.org/2000/svg" xmlns:xlink="http://www.w3.org/1999/xlink">
    <!-- Generator: Sketch 52.5 (67469) - http://www.bohemiancoding.com/sketch -->
    <title>Shape</title>
    <desc>Created with Sketch.</desc>
    <g id="Page-1" stroke="none" stroke-width="1" fill="none" fill-rule="evenodd">
        <g id="Desktop-HD" transform="translate(-811.000000, -447.000000)" fill="#030104" fill-rule="nonzero">
            <g id="members" transform="translate(361.000000, 442.000000)">
                <g id="member">
                    <g id="social" transform="translate(450.000000, 5.000000)">
                        <path d="M12.7828696,9.34317949 C12.0414565,9.34317949 11.4400652,10.1690256 11.4400652,11.1885128 C11.4400652,12.2082051 12.0414565,13.0344615 12.7828696,13.0344615 C13.5238696,13.0344615 14.1248478,12.2082051 14.1248478,11.1885128 C14.1250543,10.1690256 13.5238696,9.34317949 12.7828696,9.34317949 Z M17.456663,4.53989744 C17.6094891,4.16533333 17.6171304,2.03712821 16.8019891,0 C16.8019891,0 14.9315217,0.203692308 12.1015543,2.13251282 C11.5084239,1.96984615 10.5039022,1.88841026 9.5,1.88841026 C8.49609783,1.88841026 7.49198913,1.96964103 6.89823913,2.13230769 C4.06827174,0.203692308 2.19842391,0 2.19842391,0 C1.38307609,2.03712821 1.39030435,4.16533333 1.54333696,4.53989744 C0.585282609,5.57312821 0,6.81394872 0,8.50933333 C0,15.88 6.15620652,15.9981538 7.71028261,15.9981538 C8.06198913,15.9981538 8.76106522,15.9989744 9.5,16 C10.2389348,15.9989744 10.9384239,15.9981538 11.2897174,15.9981538 C12.8437935,15.9981538 19,15.88 19,8.50933333 C19,6.81394872 18.4147174,5.57312821 17.456663,4.53989744 Z M9.52911957,15.0921026 L9.47108696,15.0921026 C5.57629348,15.0921026 2.54331522,14.6301538 2.54331522,10.8705641 C2.54331522,9.97025641 2.86321739,9.13415385 3.62321739,8.44041026 C4.89146739,7.28430769 7.03640217,7.89661538 9.47108696,7.89661538 C9.48038043,7.89661538 9.49029348,7.89641026 9.50020652,7.896 C9.51032609,7.89641026 9.52003261,7.89661538 9.52932609,7.89661538 C11.9640109,7.89661538 14.1095652,7.28451282 15.3771957,8.44041026 C16.1371957,9.13415385 16.4570978,9.97025641 16.4570978,10.8705641 C16.4568913,14.6301538 13.423913,15.0921026 9.52911957,15.0921026 Z M6.21713043,9.34317949 C5.47613043,9.34317949 4.87515217,10.1690256 4.87515217,11.1885128 C4.87515217,12.2082051 5.47613043,13.0344615 6.21713043,13.0344615 C6.95895652,13.0344615 7.55993478,12.2082051 7.55993478,11.1885128 C7.55972826,10.1690256 6.95875,9.34317949 6.21713043,9.34317949 Z" id="Shape"></path>
                    </g>
                </g>
            </g>
        </g>
    </g>
</svg>