<?xml version="1.0" encoding="UTF-8"?>
<svg width="19px" height="16px" viewBox="0 0 19 16" version="1.1" xmlns="http://www.w3.org/2000/svg" xmlns:xlink="http://www.w3.org/1999/xlink">
    <!-- Generator: Sketch 52.5 (67469) - http://www.bohemiancoding.com/sketch -->
    <title>Path</title>
    <desc>Created with Sketch.</desc>
    <g id="Page-1" stroke="none" stroke-width="1" fill="none" fill-rule="evenodd">
        <g id="Desktop-HD" transform="translate(-836.000000, -447.000000)" fill="#010002">
            <g id="members" transform="translate(361.000000, 442.000000)">
                <g id="member">
                    <g id="social" transform="translate(450.000000, 5.000000)">
                        <path d="M44,1.89305176 C43.3006933,2.21429477 42.5503473,2.43215809 41.7619702,2.52942253 C42.5669568,2.02967901 43.1831539,1.23701568 43.4752018,0.295398084 C42.7201058,0.758192706 41.8866191,1.09424102 40.9985229,1.27641068 C40.2873567,0.489894774 39.2757913,0 38.153796,0 C36.0012663,0 34.2559645,1.80936959 34.2559645,4.03969271 C34.2559645,4.35601134 34.2903943,4.6649595 34.3568944,4.96038977 C31.11801,4.79173799 28.2459939,3.18301252 26.323793,0.738495209 C25.9877843,1.33424794 25.7966353,2.02842378 25.7966353,2.76942945 C25.7966353,4.17139558 26.4852622,5.40841127 27.5300777,6.13213335 C26.8913103,6.10998976 26.290543,5.9278201 25.764596,5.62501936 L25.764596,5.67548615 C25.764596,7.63255478 27.1085999,9.26590213 28.890691,9.63764411 C28.5641823,9.72872894 28.2198843,9.77919573 27.8636959,9.77919573 C27.6120075,9.77919573 27.3686084,9.75335081 27.1299594,9.70410706 C27.6262265,11.3103864 29.0652305,12.4784609 30.7701728,12.5104854 C29.4368488,13.5936546 27.7556565,14.2373959 25.9296355,14.2373959 C25.6150173,14.2373959 25.3051181,14.2176984 25,14.1820047 C26.7251221,15.3304138 28.7731826,16 30.9743921,16 C38.1443581,16 42.0635802,9.84321259 42.0635802,4.50374256 L42.0505099,3.9806324 C42.8162856,3.41439374 43.478772,2.70296649 44,1.89305176 Z" id="Path"></path>
                    </g>
                </g>
            </g>
        </g>
    </g>
</svg>